<?xml version="1.0" encoding="UTF-8" standalone="no"?>
<!-- Created with Inkscape (http://www.inkscape.org/) -->

<svg
   width="500.00003pt"
   height="200pt"
   viewBox="0 0 176.38889 70.555556"
   version="1.1"
   id="svg5"
   inkscape:version="1.2.2 (b0a8486541, 2022-12-01)"
   sodipodi:docname="logo2.svg"
   inkscape:export-filename="app_logo.svg"
   inkscape:export-xdpi="96"
   inkscape:export-ydpi="96"
   xmlns:inkscape="http://www.inkscape.org/namespaces/inkscape"
   xmlns:sodipodi="http://sodipodi.sourceforge.net/DTD/sodipodi-0.dtd"
   xmlns="http://www.w3.org/2000/svg"
   xmlns:svg="http://www.w3.org/2000/svg">
  <sodipodi:namedview
     id="namedview7"
     pagecolor="#505050"
     bordercolor="#ffffff"
     borderopacity="1"
     inkscape:showpageshadow="0"
     inkscape:pageopacity="0"
     inkscape:pagecheckerboard="1"
     inkscape:deskcolor="#505050"
     inkscape:document-units="mm"
     showgrid="false"
     inkscape:zoom="1.7242976"
     inkscape:cx="337.52875"
     inkscape:cy="158.90529"
     inkscape:window-width="1920"
     inkscape:window-height="1022"
     inkscape:window-x="0"
     inkscape:window-y="30"
     inkscape:window-maximized="1"
     inkscape:current-layer="layer1" />
  <defs
     id="defs2">
    <rect
       x="288.38058"
       y="53.794518"
       width="350.11197"
       height="213.98901"
       id="rect12093" />
  </defs>
  <g
     inkscape:label="Layer 1"
     inkscape:groupmode="layer"
     id="layer1">
    <path
       id="path788-5"
       style="fill:#baf3f3;fill-opacity:1;stroke:#6e6e6e;stroke-width:0.771785;stroke-dasharray:none;stroke-opacity:1"
       d="m 48.722607,21.600749 a 2.839937,2.839937 0 0 0 -2.840136,2.840136 2.839937,2.839937 0 0 0 2.840136,2.83962 2.839937,2.839937 0 0 0 2.83962,-2.83962 2.839937,2.839937 0 0 0 -2.83962,-2.840136 z m 11.441679,0 a 2.839937,2.839937 0 0 0 -2.840136,2.840136 2.839937,2.839937 0 0 0 2.840136,2.83962 2.839937,2.839937 0 0 0 2.83962,-2.83962 2.839937,2.839937 0 0 0 -2.83962,-2.840136 z m -7.565946,5.679756 a 2.839937,2.839937 0 0 0 -2.83962,2.840137 2.839937,2.839937 0 0 0 2.83962,2.83962 2.839937,2.839937 0 0 0 2.840137,-2.83962 2.839937,2.839937 0 0 0 -2.840137,-2.840137 z m -7.56543,1.885157 a 2.839937,2.839937 0 0 0 -2.840137,2.840136 2.839937,2.839937 0 0 0 2.840137,2.83962 2.839937,2.839937 0 0 0 2.840137,-2.83962 2.839937,2.839937 0 0 0 -2.840137,-2.840136 z m 6.244063,6.451802 a 2.839937,2.839937 0 0 0 -2.840136,2.83962 2.839937,2.839937 0 0 0 2.840136,2.840137 2.839937,2.839937 0 0 0 2.83962,-2.840137 2.839937,2.839937 0 0 0 -2.83962,-2.83962 z m -6.244063,1.113111 a 2.839937,2.839937 0 0 0 -2.840137,2.840136 2.839937,2.839937 0 0 0 2.840137,2.83962 2.839937,2.839937 0 0 0 2.840137,-2.83962 2.839937,2.839937 0 0 0 -2.840137,-2.840136 z" />
    <path
       id="path788-5-3-9"
       style="fill:#e4cc62;fill-opacity:1;stroke:#878787;stroke-width:0.771785;stroke-dasharray:none;stroke-opacity:1"
       d="m 68.683663,27.280505 a 2.839937,2.839937 0 0 0 -2.840137,2.840137 2.839937,2.839937 0 0 0 2.840137,2.83962 2.839937,2.839937 0 0 0 2.840137,-2.83962 2.839937,2.839937 0 0 0 -2.840137,-2.840137 z m -5.905066,1.885157 a 2.839937,2.839937 0 0 0 -2.83962,2.840136 2.839937,2.839937 0 0 0 2.83962,2.83962 2.839937,2.839937 0 0 0 2.840137,-2.83962 2.839937,2.839937 0 0 0 -2.840137,-2.840136 z m -4.028178,5.351094 a 2.839937,2.839937 0 0 0 -2.840137,2.840137 2.839937,2.839937 0 0 0 2.840137,2.83962 2.839937,2.839937 0 0 0 2.840137,-2.83962 2.839937,2.839937 0 0 0 -2.840137,-2.840137 z m 8.979297,2.213819 a 2.839937,2.839937 0 0 0 -2.840137,2.840136 2.839937,2.839937 0 0 0 2.840137,2.83962 2.839937,2.839937 0 0 0 2.840137,-2.83962 2.839937,2.839937 0 0 0 -2.840137,-2.840136 z m -5.296318,2.406054 a 2.839937,2.839937 0 0 0 -2.840136,2.83962 2.839937,2.839937 0 0 0 2.840136,2.840137 2.839937,2.839937 0 0 0 2.840137,-2.840137 2.839937,2.839937 0 0 0 -2.840137,-2.83962 z m -11.156425,4.045748 a 2.839937,2.839937 0 0 0 -2.840136,2.83962 2.839937,2.839937 0 0 0 2.840136,2.840137 2.839937,2.839937 0 0 0 2.83962,-2.840137 2.839937,2.839937 0 0 0 -2.83962,-2.83962 z m 8.523511,1.309481 a 2.839937,2.839937 0 0 0 -2.840137,2.840137 2.839937,2.839937 0 0 0 2.840137,2.83962 2.839937,2.839937 0 0 0 2.83962,-2.83962 2.839937,2.839937 0 0 0 -2.83962,-2.840137 z" />
    <path
       style="fill:none;fill-opacity:1;stroke:#6be476;stroke-width:1.28631;stroke-dasharray:none;stroke-opacity:1"
       d="m 69.344882,25.650703 c -8.334899,1.667092 -11.977236,2.20264 -13.258134,9.922967 -1.040066,6.268765 -5.025521,7.640986 -10.692266,9.119034"
       id="path8515"
       sodipodi:nodetypes="csc" />
    <path
       id="path1189"
       style="font-weight:600;font-size:33.3333px;line-height:1;font-family:'Noto Sans';-inkscape-font-specification:'Noto Sans, Semi-Bold';word-spacing:0px;white-space:pre;shape-inside:url(#rect12093);display:inline;fill:#e5e5e5;stroke-width:6.66667"
       d="m 369.7132,59.857095 v 25.332032 h 4.20118 v -8.832031 c 0,-1.977774 0.31136,-3.499742 0.93359,-4.566407 0.62222,-1.066664 1.77791,-1.601562 3.4668,-1.601562 2.22221,0 3.33203,1.357254 3.33203,4.068359 v 10.931641 h 4.20117 V 73.423502 c 0,-2.333329 -0.57882,-4.021964 -1.73438,-5.066406 -1.15555,-1.044443 -2.75439,-1.566407 -4.79882,-1.566407 -1.13334,0 -2.16823,0.221572 -3.10157,0.666016 -0.93333,0.444443 -1.68785,1.122094 -2.26562,2.033203 H 373.68 c 0.0444,-0.333332 0.0903,-0.833335 0.13477,-1.5 0.0667,-0.688888 0.0996,-1.3885 0.0996,-2.099609 v -6.033204 z m 67.26758,0 V 85.189127 H 441.18 V 59.857095 Z m -43.76758,0.298829 c -0.64444,0 -1.19935,0.166667 -1.66601,0.5 -0.44445,0.311111 -0.66602,0.878951 -0.66602,1.701171 0,0.822221 0.22157,1.39909 0.66602,1.732422 0.46666,0.333333 1.02157,0.5 1.66601,0.5 0.64445,0 1.19033,-0.166667 1.63477,-0.5 0.46667,-0.333332 0.69922,-0.910201 0.69922,-1.732422 0,-0.82222 -0.23255,-1.39006 -0.69922,-1.701171 -0.44444,-0.333333 -0.99032,-0.5 -1.63477,-0.5 z m -90.46484,0.90039 c -2.64444,0 -4.88994,0.500003 -6.73438,1.5 -1.84444,0.999999 -3.25465,2.423138 -4.23242,4.267578 -0.95556,1.822219 -1.43359,3.966933 -1.43359,6.433594 0,3.911104 0.96706,6.933077 2.90039,9.066407 1.93333,2.133329 4.69884,3.199218 8.29883,3.199218 1.68888,0 3.19987,-0.111762 4.5332,-0.333984 1.33333,-0.244444 2.63373,-0.566797 3.90039,-0.966797 V 72.122721 h -9 v 3.634765 h 4.80078 v 5.732422 c -0.5111,0.111111 -1.05698,0.211893 -1.63476,0.300781 -0.57778,0.08889 -1.28837,0.132813 -2.13282,0.132813 -1.7111,0 -3.09935,-0.366278 -4.16601,-1.099609 -1.06667,-0.733332 -1.8451,-1.744317 -2.33399,-3.033204 -0.48889,-1.288886 -0.73242,-2.777911 -0.73242,-4.466797 0,-1.755552 0.31137,-3.27752 0.9336,-4.566406 0.64443,-1.311109 1.55464,-2.324046 2.73242,-3.035156 1.17777,-0.71111 2.577,-1.066406 4.19922,-1.066406 1.06666,0 2.09058,0.133724 3.06836,0.40039 0.97777,0.266667 1.85503,0.578039 2.63281,0.933594 l 1.4668,-3.5 c -1,-0.422222 -2.11177,-0.766537 -3.33399,-1.033203 -1.2,-0.266667 -2.44354,-0.400391 -3.73242,-0.400391 z m 22,5.734375 c -1.22222,0 -2.30104,0.344316 -3.23438,1.033203 -0.93333,0.666666 -1.66588,1.47804 -2.19921,2.433594 h -0.20118 l -0.59961,-3.134765 h -3.23242 v 18.066406 h 4.19922 v -9.365235 c 0,-1.155552 0.23255,-2.111633 0.69922,-2.867187 0.48889,-0.777777 1.12262,-1.343664 1.90039,-1.699219 0.77778,-0.377777 1.61111,-0.568359 2.5,-0.568359 0.24445,0 0.52288,0.02391 0.83398,0.06836 0.31112,0.02222 0.57661,0.05516 0.79883,0.09961 l 0.36719,-3.900391 c -0.24445,-0.06667 -0.54484,-0.110593 -0.90039,-0.132813 -0.33333,-0.02222 -0.64275,-0.0332 -0.93164,-0.0332 z m 11.69922,0 c -1.24444,0 -2.44406,0.142752 -3.59961,0.431641 -1.13333,0.288888 -2.14432,0.6681 -3.0332,1.134766 l 1.33203,2.933593 c 0.82222,-0.355554 1.64457,-0.666927 2.46679,-0.933593 0.84445,-0.266667 1.72366,-0.400391 2.63477,-0.400391 1,0 1.77647,0.254515 2.33203,0.765625 0.55555,0.488888 0.83398,1.300263 0.83398,2.433594 v 0.90039 l -3.13281,0.09961 c -2.77777,0.111111 -4.8566,0.633074 -6.23437,1.566406 -1.35555,0.933331 -2.03321,2.334508 -2.03321,4.201172 0,1.911107 0.53295,3.321313 1.59961,4.232422 1.06667,0.911109 2.41099,1.367187 4.03321,1.367187 1.48888,0 2.66653,-0.221572 3.5332,-0.666015 0.86667,-0.466666 1.68902,-1.190193 2.4668,-2.167969 h 0.13476 l 0.83203,2.5 h 2.9668 V 73.056314 c 0,-2.133328 -0.60981,-3.710201 -1.83203,-4.732422 -1.2,-1.02222 -2.96745,-1.533203 -5.30078,-1.533203 z m 21.90039,0 c -1.35555,0 -2.45634,0.265496 -3.30078,0.798828 -0.84445,0.533333 -1.51112,1.17804 -2,1.933594 h -0.19922 l -0.59961,-2.40039 h -3.40039 v 26.066406 h 4.19922 v -7.332031 c 0,-0.422221 -0.033,-0.8783 -0.0996,-1.367188 -0.0445,-0.51111 -0.0994,-0.978169 -0.16602,-1.40039 h 0.26563 c 0.48888,0.644443 1.14458,1.212283 1.96679,1.701171 0.82222,0.488888 1.90105,0.732422 3.23438,0.732422 2.11111,0 3.82171,-0.789413 5.13281,-2.367187 1.33333,-1.599997 2,-3.94432 2,-7.033203 0,-3.088883 -0.64471,-5.411245 -1.93359,-6.966797 -1.28889,-1.577775 -2.9885,-2.365235 -5.09961,-2.365235 z m 49.9668,0 c -1.68889,0 -3.1889,0.333335 -4.5,1 -1.31112,0.644444 -2.34601,1.666409 -3.10157,3.066407 -0.73333,1.377774 -1.09961,3.178172 -1.09961,5.40039 0,3.199994 0.74549,5.544318 2.23438,7.033203 1.48888,1.488886 3.53281,2.232422 6.13281,2.232422 1.17777,0 2.15582,-0.100782 2.9336,-0.300781 0.8,-0.2 1.54353,-0.498438 2.23242,-0.898437 v -3.634766 c -0.71111,0.422221 -1.45465,0.755556 -2.23242,1 -0.77778,0.244444 -1.66797,0.367187 -2.66797,0.367187 -1.39999,0 -2.47687,-0.489021 -3.23242,-1.466796 -0.73333,-0.977777 -1.09961,-2.433859 -1.09961,-4.367188 0,-3.97777 1.46706,-5.964844 4.40039,-5.964844 0.64444,0 1.31111,0.09883 2,0.298828 0.68888,0.177777 1.37752,0.39935 2.0664,0.666016 l 1.23242,-3.298828 c -0.62222,-0.311111 -1.37673,-0.57856 -2.26562,-0.800781 -0.88889,-0.222222 -1.89987,-0.332032 -3.0332,-0.332032 z m 16.26562,0 c -1.24444,0 -2.44406,0.142752 -3.59961,0.431641 -1.13333,0.288888 -2.14432,0.6681 -3.0332,1.134766 l 1.33398,2.933593 c 0.82222,-0.355554 1.64263,-0.666927 2.46485,-0.933593 0.84444,-0.266667 1.72366,-0.400391 2.63476,-0.400391 1,0 1.77647,0.254515 2.33203,0.765625 0.55556,0.488888 0.83399,1.300263 0.83399,2.433594 v 0.90039 l -3.13281,0.09961 c -2.77777,0.111111 -4.8566,0.633074 -6.23438,1.566406 -1.35555,0.933331 -2.0332,2.334508 -2.0332,4.201172 0,1.911107 0.53294,3.321313 1.59961,4.232422 1.06666,0.911109 2.41294,1.367187 4.03515,1.367187 1.48889,0 2.66654,-0.221572 3.53321,-0.666015 0.86666,-0.466666 1.68902,-1.190193 2.46679,-2.167969 h 0.13282 l 0.83203,2.5 h 2.96679 V 73.056314 c 0,-2.133328 -0.60981,-3.710201 -1.83203,-4.732422 -1.2,-1.02222 -2.96745,-1.533203 -5.30078,-1.533203 z m -33.4668,0.332032 v 18.066406 h 4.20118 V 67.122721 Z m -33.96679,3.066406 c 1.35555,0 2.34457,0.510983 2.96679,1.533203 0.64444,1.02222 0.9668,2.467321 0.9668,4.333984 0,1.866663 -0.32236,3.344707 -0.9668,4.433594 -0.62222,1.066664 -1.58928,1.59961 -2.90039,1.59961 -1.6,0 -2.69883,-0.510983 -3.29882,-1.533204 -0.57778,-1.044442 -0.86719,-2.533467 -0.86719,-4.466797 v -0.533203 c 0.0222,-1.799996 0.33359,-3.144316 0.93359,-4.033203 0.62222,-0.888887 1.67713,-1.333984 3.16602,-1.333984 z m -17.73243,6.466797 v 1.533203 c 0,1.377775 -0.42313,2.423656 -1.26757,3.134766 -0.84444,0.688888 -1.87739,1.033203 -3.09961,1.033203 -0.82223,0 -1.4889,-0.177648 -2,-0.533203 -0.4889,-0.377777 -0.73242,-1.000523 -0.73242,-1.867188 0,-0.955554 0.35529,-1.712023 1.0664,-2.267578 0.71111,-0.577776 1.98759,-0.90013 3.83203,-0.966797 z m 88.13282,0 v 1.533203 c 0,1.377775 -0.42118,2.423656 -1.26563,3.134766 -0.84444,0.688888 -1.87934,1.033203 -3.10156,1.033203 -0.82222,0 -1.48889,-0.177648 -2,-0.533203 -0.48889,-0.377777 -0.73242,-1.000523 -0.73242,-1.867188 0,-0.955554 0.3553,-1.712023 1.06641,-2.267578 0.71111,-0.577776 1.98954,-0.90013 3.83398,-0.966797 z M 364.7132,99.857096 v 25.332034 h 3.13477 l 0.76562,-2.09961 h 0.30079 c 0.48888,0.64444 1.13359,1.21228 1.93359,1.70117 0.82222,0.48889 1.91007,0.73242 3.26562,0.73242 2.13333,0 3.85686,-0.78941 5.16797,-2.36719 1.31111,-1.57777 1.9668,-3.9221 1.9668,-7.0332 0,-3.06666 -0.65569,-5.38902 -1.9668,-6.9668 -1.28888,-1.57777 -2.97947,-2.36523 -5.06836,-2.36523 -1.35556,0 -2.45439,0.2655 -3.29882,0.79883 -0.84445,0.5111 -1.51112,1.14484 -2,1.90039 h -0.20118 c 0.0444,-0.37777 0.0903,-0.89974 0.13477,-1.56641 0.0445,-0.66666 0.0664,-1.35529 0.0664,-2.0664 v -6.000004 z m -7.46484,0.298824 c -0.64445,0 -1.2013,0.16667 -1.66797,0.5 -0.44444,0.31112 -0.66601,0.87896 -0.66601,1.70118 0,0.82222 0.22157,1.39908 0.66601,1.73242 0.46667,0.33333 1.02352,0.5 1.66797,0.5 0.64444,0 1.18837,-0.16667 1.63281,-0.5 0.46667,-0.33334 0.69922,-0.9102 0.69922,-1.73242 0,-0.82222 -0.23255,-1.39006 -0.69922,-1.70118 -0.44444,-0.33333 -0.98837,-0.5 -1.63281,-0.5 z m 65.36523,0 c -0.64443,0 -1.19934,0.16667 -1.66601,0.5 -0.44445,0.31112 -0.66602,0.87896 -0.66602,1.70118 0,0.82222 0.22157,1.39908 0.66602,1.73242 0.46667,0.33333 1.02158,0.5 1.66601,0.5 0.64445,0 1.18838,-0.16667 1.63282,-0.5 0.46666,-0.33334 0.70117,-0.9102 0.70117,-1.73242 0,-0.82222 -0.23451,-1.39006 -0.70117,-1.70118 -0.44444,-0.33333 -0.98837,-0.5 -1.63282,-0.5 z m -125.5,1.13477 -8.73242,23.89844 h 4.5332 l 2.13282,-6.29883 h 8.96679 l 2.16602,6.29883 h 4.5332 l -8.73242,-23.89844 z m 18.30078,1.86523 -1.33398,3.83399 -2.66602,1.4668 v 1.83398 h 2.4336 v 9.39844 c 0,1.51111 0.24353,2.68876 0.73242,3.5332 0.48889,0.84445 1.15555,1.44523 2,1.80078 0.84444,0.33333 1.77856,0.5 2.80078,0.5 0.77778,0 1.52132,-0.0769 2.23242,-0.23242 0.71112,-0.13333 1.28993,-0.3 1.73438,-0.5 v -3.13477 c -0.42223,0.13334 -0.88929,0.25608 -1.40039,0.36719 -0.48889,0.0889 -0.9889,0.13281 -1.5,0.13281 -0.71111,0 -1.28994,-0.19961 -1.73438,-0.59961 -0.44444,-0.42221 -0.66601,-1.05594 -0.66601,-1.90039 v -9.36523 H 323.18 v -3.16797 h -5.13281 v -3.9668 z m 13.53321,0 -1.33399,3.83399 -2.66601,1.4668 v 1.83398 h 2.43359 v 9.39844 c 0,1.51111 0.24354,2.68876 0.73242,3.5332 0.4889,0.84445 1.15556,1.44523 2,1.80078 0.84445,0.33333 1.77857,0.5 2.80078,0.5 0.77778,0 1.52132,-0.0769 2.23243,-0.23242 0.71111,-0.13333 1.28993,-0.3 1.73437,-0.5 v -3.13477 c -0.42222,0.13334 -0.88928,0.25608 -1.40039,0.36719 -0.48889,0.0889 -0.98889,0.13281 -1.5,0.13281 -0.71111,0 -1.28797,-0.19961 -1.73242,-0.59961 -0.44444,-0.42221 -0.66797,-1.05594 -0.66797,-1.90039 v -9.36523 h 5.13281 v -3.16797 h -5.13281 v -3.9668 z m 80,0 -1.33399,3.83399 -2.66601,1.4668 v 1.83398 h 2.43359 v 9.39844 c 0,1.51111 0.24354,2.68876 0.73242,3.5332 0.4889,0.84445 1.15557,1.44523 2,1.80078 0.84445,0.33333 1.77857,0.5 2.80079,0.5 0.77777,0 1.52131,-0.0769 2.23242,-0.23242 0.71111,-0.13333 1.28993,-0.3 1.73437,-0.5 v -3.13477 c -0.42222,0.13334 -0.88928,0.25608 -1.40039,0.36719 -0.48888,0.0889 -0.98889,0.13281 -1.5,0.13281 -0.7111,0 -1.28993,-0.19961 -1.73437,-0.59961 -0.44444,-0.42221 -0.66602,-1.05594 -0.66602,-1.90039 v -9.36523 h 5.13281 v -3.16797 h -5.13281 v -3.9668 z m -109.40039,1.60157 c 0.0889,0.37777 0.21163,0.85386 0.36718,1.43164 0.17778,0.55555 0.35543,1.10143 0.53321,1.63476 0.17778,0.53334 0.3115,0.95452 0.40039,1.26563 l 2.0664,6.13281 h -6.69921 l 2.09961,-6.13281 c 0.0667,-0.26667 0.17647,-0.65491 0.33203,-1.16602 0.15555,-0.51111 0.31124,-1.05504 0.46679,-1.63281 0.17778,-0.57778 0.32248,-1.08876 0.4336,-1.5332 z m 50.43359,2.0332 c -1.22222,0 -2.29909,0.34432 -3.23242,1.0332 -0.93333,0.66667 -1.66784,1.47804 -2.20117,2.4336 h -0.19922 l -0.59961,-3.13477 h -3.23438 v 18.06641 h 4.19922 v -9.36524 c 0,-1.15555 0.23451,-2.11163 0.70118,-2.86718 0.48889,-0.77778 1.12261,-1.34367 1.90039,-1.69922 0.77777,-0.37778 1.61111,-0.56836 2.5,-0.56836 0.24444,0 0.52092,0.0239 0.83203,0.0684 0.31111,0.0222 0.57856,0.0551 0.80078,0.0996 l 0.36719,-3.90039 c -0.24445,-0.0667 -0.54484,-0.11062 -0.90039,-0.13282 -0.33334,-0.0222 -0.64471,-0.0332 -0.9336,-0.0332 z m 87.66602,0 c -2.66667,0 -4.77648,0.80942 -6.33203,2.43164 -1.53334,1.6 -2.30078,3.9004 -2.30078,6.90039 0,2 0.36627,3.69961 1.0996,5.09961 0.73334,1.39999 1.74432,2.46784 3.03321,3.20117 1.28888,0.73334 2.75594,1.09961 4.40039,1.09961 2.66666,0 4.77843,-0.81137 6.33398,-2.43359 1.55555,-1.64444 2.33203,-3.9668 2.33203,-6.9668 0,-2 -0.36627,-3.68863 -1.0996,-5.06641 -0.73334,-1.39999 -1.74432,-2.4549 -3.03321,-3.16601 -1.28888,-0.73333 -2.76693,-1.09961 -4.43359,-1.09961 z m 22.5664,0 c -1.13333,0 -2.2102,0.22158 -3.23242,0.66602 -1,0.42222 -1.78941,1.09987 -2.36718,2.0332 h -0.23243 l -0.59961,-2.36719 h -3.23437 v 18.06641 h 4.19922 v -8.83203 c 0,-1.97778 0.31137,-3.49974 0.93359,-4.56641 0.62222,-1.06667 1.77791,-1.60156 3.4668,-1.60156 2.22222,0 3.33398,1.35725 3.33398,4.06836 v 10.93164 H 466.68 V 113.4235 c 0,-2.33332 -0.57687,-4.02196 -1.73242,-5.0664 -1.13333,-1.04444 -2.71216,-1.56641 -4.73438,-1.56641 z m -105.0664,0.33203 v 18.06641 h 4.20117 v -18.06641 z m 30.30078,0 v 11.80078 c 0,2.31111 0.56589,3.98876 1.69922,5.03321 1.15555,1.04443 2.74536,1.5664 4.76758,1.5664 1.13333,0 2.19922,-0.21059 3.19921,-0.63281 1.02222,-0.42222 1.8336,-1.09987 2.4336,-2.0332 h 0.20117 l 0.56641,2.33203 h 3.29882 v -18.06641 h -4.19921 v 8.83399 c 0,1.99999 -0.32236,3.53294 -0.9668,4.5996 -0.62222,1.04445 -1.77791,1.56641 -3.4668,1.56641 -2.22222,0 -3.33398,-1.34432 -3.33398,-4.0332 v -10.9668 z m 35.06641,0 v 18.06641 h 4.19921 v -18.06641 z m -47.50001,3.06641 c 1.26666,0 2.23373,0.48902 2.9004,1.46679 0.68889,0.97778 1.0332,2.45582 1.0332,4.4336 0,1.93333 -0.33334,3.42236 -1,4.46679 -0.66667,1.02222 -1.62274,1.53321 -2.86719,1.53321 -1.59999,0 -2.69883,-0.51099 -3.29883,-1.53321 -0.57778,-1.02221 -0.86718,-2.50026 -0.86718,-4.43359 v -0.36523 c 0.0222,-1.88889 0.33359,-3.29007 0.93359,-4.20118 0.6,-0.91111 1.6549,-1.36718 3.16601,-1.36718 z m 64.56641,0 c 1.53333,0 2.63412,0.51097 3.30078,1.5332 0.68889,1.02222 1.03321,2.48929 1.03321,4.40039 0,1.91111 -0.34432,3.38916 -1.03321,4.43359 -0.66666,1.04445 -1.75647,1.56641 -3.26758,1.56641 -1.51111,0 -2.60994,-0.52196 -3.29882,-1.56641 -0.66667,-1.04443 -1,-2.52248 -1,-4.43359 0,-1.9111 0.33333,-3.37817 1,-4.40039 0.68888,-1.02223 1.77674,-1.5332 3.26562,-1.5332 z M 291.48078,141.3903 v 23.79883 h 4.26758 v -8.76563 h 2.36523 c 2.33333,0 4.17765,-0.3553 5.53321,-1.0664 1.37777,-0.73334 2.35582,-1.68941 2.93359,-2.86719 0.57778,-1.2 0.86719,-2.47843 0.86719,-3.83399 0,-2.26666 -0.7106,-4.04314 -2.13281,-5.33203 -1.4,-1.28888 -3.6455,-1.93359 -6.73438,-1.93359 z m 4.26758,3.5332 h 2.56641 c 1.64444,0 2.85504,0.32235 3.63281,0.9668 0.77778,0.64444 1.16601,1.62248 1.16601,2.93359 0,1.44444 -0.47804,2.48837 -1.43359,3.13282 -0.93333,0.62222 -2.26667,0.93359 -4,0.93359 h -1.93164 z m 25.43164,1.86719 c -1.22222,0 -2.29909,0.34432 -3.23242,1.0332 -0.93333,0.66667 -1.66589,1.47804 -2.19922,2.4336 h -0.20117 l -0.59961,-3.13477 h -3.23438 v 18.06641 h 4.20117 v -9.36524 c 0,-1.15555 0.23256,-2.11163 0.69922,-2.86718 0.48889,-0.77778 1.12261,-1.34367 1.90039,-1.69922 0.77778,-0.37778 1.61112,-0.56836 2.5,-0.56836 0.24445,0 0.52288,0.0239 0.83399,0.0684 0.3111,0.0222 0.5766,0.0551 0.79883,0.0996 l 0.36718,-3.90039 c -0.24444,-0.0667 -0.54483,-0.11062 -0.90039,-0.13282 -0.33333,-0.0222 -0.6447,-0.0332 -0.93359,-0.0332 z m 12.06836,0 c -2.66666,0 -4.77843,0.80942 -6.33399,2.43164 -1.53333,1.6 -2.30078,3.9004 -2.30078,6.90039 0,2 0.36628,3.69961 1.09961,5.09961 0.73334,1.39999 1.74627,2.46784 3.03516,3.20117 1.28888,0.73334 2.754,1.09961 4.39844,1.09961 2.66666,0 4.77843,-0.81137 6.33398,-2.43359 1.55555,-1.64444 2.33399,-3.9668 2.33399,-6.9668 0,-2 -0.36823,-3.68863 -1.10157,-5.0664 -0.73333,-1.4 -1.74431,-2.45491 -3.0332,-3.16602 -1.28889,-0.73333 -2.76498,-1.09961 -4.43164,-1.09961 z m 18.96484,0 c -2.24443,0 -3.99896,0.83334 -5.26562,2.5 -1.24444,1.66667 -1.86719,3.96511 -1.86719,6.89844 0,2.93332 0.62275,5.22274 1.86719,6.86719 1.24444,1.64443 2.96602,2.46679 5.16601,2.46679 1.13334,0 2.14432,-0.21059 3.03321,-0.63281 0.91111,-0.44445 1.67856,-1.13307 2.30078,-2.06641 h 0.13281 c -0.0445,0.26667 -0.0774,0.62196 -0.0996,1.06641 -0.0222,0.44445 -0.0332,0.83268 -0.0332,1.16602 v 0.46679 c 0,1.46667 -0.36628,2.57843 -1.09961,3.33399 -0.71111,0.77778 -1.75699,1.16601 -3.13477,1.16601 -2.55555,0 -4.86498,-0.46706 -6.93164,-1.40039 v 3.4668 c 0.97777,0.4 2.01073,0.67842 3.09961,0.83398 1.08889,0.17778 2.27752,0.26563 3.56641,0.26563 2.88888,0 5.05556,-0.66667 6.5,-2 1.46666,-1.33333 2.19922,-3.28746 2.19922,-5.86524 v -18.20117 h -3.5 l -0.39844,2.33399 h -0.16797 c -1.28889,-1.77778 -3.0783,-2.66602 -5.36719,-2.66602 z m 24.26758,0 c -1.22222,0 -2.30104,0.34432 -3.23437,1.0332 -0.93334,0.66667 -1.66589,1.47804 -2.19922,2.4336 h -0.19922 l -0.60156,-3.13477 h -3.23243 v 18.06641 h 4.19922 v -9.36524 c 0,-1.15555 0.23451,-2.11163 0.70118,-2.86718 0.48888,-0.77778 1.12261,-1.34367 1.90039,-1.69922 0.77777,-0.37778 1.61111,-0.56836 2.5,-0.56836 0.24444,0 0.52091,0.0239 0.83203,0.0684 0.3111,0.0222 0.57855,0.0551 0.80078,0.0996 l 0.36719,-3.90039 c -0.24444,-0.0667 -0.54483,-0.11062 -0.90039,-0.13282 -0.33334,-0.0222 -0.64471,-0.0332 -0.9336,-0.0332 z m 11.69922,0 c -1.24444,0 -2.44406,0.14275 -3.59961,0.43164 -1.13333,0.28889 -2.14432,0.6681 -3.0332,1.13477 l 1.33398,2.93359 c 0.82222,-0.35555 1.64458,-0.66693 2.4668,-0.93359 0.84445,-0.26667 1.72171,-0.40039 2.63281,-0.40039 1,0 1.77843,0.25451 2.33399,0.76562 0.55556,0.48889 0.83203,1.30026 0.83203,2.43359 v 0.9004 l -3.13282,0.0996 c -2.77777,0.11111 -4.85465,0.63308 -6.23242,1.56641 -1.35555,0.93333 -2.03515,2.33451 -2.03515,4.20117 0,1.91111 0.53489,3.32131 1.60156,4.23242 1.06666,0.91111 2.41098,1.36719 4.0332,1.36719 1.48889,0 2.66654,-0.22157 3.53321,-0.66601 0.86665,-0.46667 1.68901,-1.19019 2.46679,-2.16797 h 0.13281 l 0.83399,2.5 h 2.9668 v -12.13281 c 0,-2.13334 -0.61177,-3.71021 -1.83399,-4.73243 -1.2,-1.02222 -2.96745,-1.5332 -5.30078,-1.5332 z m 21.73438,0 c -1.04444,0 -2.05543,0.22158 -3.03321,0.66602 -0.95555,0.42222 -1.70104,1.09987 -2.23437,2.0332 h -0.23242 l -0.59961,-2.36719 h -3.23438 v 18.06641 h 4.20117 v -8.83203 c 0,-1.97777 0.28746,-3.49974 0.86524,-4.56641 0.57778,-1.06667 1.63463,-1.60156 3.16797,-1.60156 2.06665,0 3.09961,1.34432 3.09961,4.0332 v 10.9668 h 4.19921 v -9.39844 c 0,-1.82222 0.31138,-3.21242 0.9336,-4.16797 0.62222,-0.95556 1.66615,-1.43359 3.13281,-1.43359 2.04445,0 3.06641,1.34432 3.06641,4.0332 v 10.9668 h 4.20117 V 153.4235 c 0,-2.33332 -0.52197,-4.02196 -1.56641,-5.0664 -1.02222,-1.04444 -2.55517,-1.56641 -4.59961,-1.56641 -1.1111,0 -2.16797,0.22158 -3.16797,0.66602 -0.99999,0.44444 -1.77647,1.15504 -2.33203,2.13281 h -0.33398 c -0.48889,-0.95555 -1.19948,-1.65517 -2.13281,-2.09961 -0.91111,-0.46667 -2.04484,-0.69922 -3.40039,-0.69922 z M 333.18,150.18913 c 1.53332,0 2.63412,0.51098 3.30078,1.5332 0.68889,1.02222 1.0332,2.48929 1.0332,4.40039 0,1.91111 -0.34431,3.38916 -1.0332,4.4336 -0.66666,1.04444 -1.75647,1.5664 -3.26758,1.5664 -1.5111,0 -2.60993,-0.52196 -3.29883,-1.5664 -0.66666,-1.04444 -1,-2.52249 -1,-4.4336 0,-1.9111 0.33334,-3.37817 1,-4.40039 0.6889,-1.02222 1.77674,-1.5332 3.26563,-1.5332 z m 20.13477,0.0332 c 1.51111,0 2.60994,0.46706 3.29882,1.40039 0.71112,0.93333 1.06641,2.46628 1.06641,4.59961 v 0.63477 c 0,1.93333 -0.35529,3.31059 -1.06641,4.13281 -0.68888,0.8 -1.76575,1.19922 -3.23242,1.19922 -2.66666,0 -4,-1.97609 -4,-5.93164 0,-4.02221 1.31138,-6.03516 3.9336,-6.03516 z m 37.83203,6.43359 v 1.53321 c 0,1.37777 -0.42118,2.42365 -1.26563,3.13476 -0.84444,0.68889 -1.87738,1.03321 -3.09961,1.03321 -0.82222,0 -1.48889,-0.17765 -2,-0.53321 -0.48889,-0.37778 -0.73437,-1.00052 -0.73437,-1.86718 0,-0.95556 0.35529,-1.71203 1.0664,-2.26758 0.71112,-0.57778 1.98955,-0.90013 3.83399,-0.9668 z"
       transform="matrix(0.26458333,0,0,0.26458333,-0.39385595,5.1837495)" />
  </g>
</svg>
